<?xml version="1.0" standalone="no"?>
<!DOCTYPE svg PUBLIC "-//W3C//DTD SVG 20010904//EN"
 "http://www.w3.org/TR/2001/REC-SVG-20010904/DTD/svg10.dtd">
<svg version="1.0" xmlns="http://www.w3.org/2000/svg"
 width="593.000000pt" height="575.000000pt" viewBox="0 0 593.000000 575.000000"
 preserveAspectRatio="xMidYMid meet">

<g transform="translate(0.000000,575.000000) scale(0.100000,-0.100000)"
fill="#000000" stroke="none">
<path d="M2901 5380 c-93 -20 -182 -99 -197 -176 -3 -19 -9 -36 -13 -38 -4 -3
-45 -10 -91 -16 -47 -6 -132 -22 -190 -36 -459 -109 -815 -306 -1168 -648
-372 -360 -590 -783 -667 -1292 -6 -38 -9 -41 -53 -53 -59 -15 -132 -87 -150
-147 -26 -87 -10 -177 41 -240 31 -38 96 -73 133 -74 19 0 23 -8 28 -57 27
-235 130 -563 242 -772 25 -46 44 -84 42 -86 -2 -2 -50 -22 -108 -44 -164 -65
-197 -81 -209 -108 -27 -58 -32 -51 327 -423 438 -454 553 -569 573 -575 13
-5 32 2 55 20 19 14 39 23 44 20 6 -3 7 1 4 10 -4 10 -2 14 7 10 18 -6 46 11
36 22 -5 4 -12 1 -17 -7 -6 -8 -10 -10 -10 -4 0 6 12 21 27 35 15 13 21 16 14
6 -27 -34 -2 -29 29 7 18 20 36 34 41 31 4 -3 11 6 15 20 4 18 13 25 31 25 13
0 33 4 43 10 21 11 53 3 44 -11 -3 -5 0 -9 5 -9 18 0 12 19 -10 30 -11 7 -19
14 -16 16 8 9 67 -32 59 -41 -4 -5 -1 -5 5 -1 7 4 61 -16 120 -44 176 -84 456
-168 637 -192 48 -7 89 -17 91 -22 2 -6 11 -33 20 -60 62 -174 284 -222 430
-94 48 43 63 69 74 128 l6 35 70 8 c97 10 371 80 485 122 137 52 343 156 457
232 444 296 799 744 976 1233 48 133 112 378 123 473 5 46 10 57 25 57 56 0
132 58 165 126 66 136 -13 319 -147 340 l-36 6 -11 87 c-25 183 -89 388 -188
605 -35 76 -64 141 -64 145 0 3 63 33 140 65 175 73 213 110 177 172 -7 12
-156 174 -332 360 -176 185 -371 392 -434 458 -90 96 -120 122 -144 124 -27 3
-45 -11 -177 -143 l-146 -146 -125 65 c-229 119 -500 201 -761 231 -46 5 -58
10 -58 24 0 32 -51 119 -85 146 -68 51 -153 71 -234 55z m107 -196 c21 -14 22
-22 22 -147 0 -85 -5 -141 -13 -157 -19 -39 -98 -47 -112 -12 -3 9 -9 76 -12
149 -5 113 -4 135 11 157 19 31 68 35 104 10z m247 -220 c151 -20 180 -28 178
-45 -1 -8 -11 -45 -23 -84 -40 -134 -49 -192 -33 -215 10 -13 25 -20 49 -20
42 0 49 13 95 183 18 64 36 117 41 117 55 0 448 -164 448 -187 0 -3 -30 -33
-67 -66 -38 -34 -144 -136 -238 -227 -93 -91 -182 -176 -196 -188 l-26 -23
-89 30 c-90 30 -250 61 -311 61 l-33 0 0 83 c0 92 -11 117 -60 137 -24 10 -36
10 -60 0 -49 -20 -60 -45 -60 -136 l0 -82 -67 -7 c-302 -30 -597 -160 -835
-367 l-58 -51 -45 42 c-54 50 -93 55 -124 15 -35 -45 -28 -78 27 -121 l47 -38
-65 -86 c-152 -202 -249 -444 -267 -661 l-6 -78 -71 0 c-78 0 -111 -14 -127
-56 -13 -35 12 -91 46 -104 15 -6 54 -10 89 -10 l63 0 2 -57 c2 -69 25 -193
52 -283 l20 -65 -138 -132 c-76 -72 -142 -129 -147 -126 -5 4 -6 2 -3 -4 3 -5
-49 -64 -117 -130 l-123 -121 -33 67 c-18 36 -43 89 -56 117 l-23 51 115 43
c125 46 164 71 164 102 0 30 -29 58 -59 58 -14 0 -77 -18 -139 -41 -77 -28
-117 -38 -124 -31 -5 5 -25 68 -43 140 -28 112 -40 178 -70 405 l-6 39 63 -6
c110 -11 128 -9 163 18 42 33 51 67 28 114 -26 53 -73 75 -148 68 -33 -3 -68
-8 -78 -11 -14 -6 -17 -1 -17 31 0 85 68 435 88 456 4 4 61 -10 127 -32 66
-22 128 -40 137 -40 24 0 58 35 58 59 0 33 -25 48 -155 91 -69 23 -125 43
-125 45 0 17 126 285 134 285 2 0 57 -32 122 -70 65 -39 128 -70 140 -70 24 0
54 34 54 60 0 23 -32 50 -140 115 -52 32 -99 61 -104 66 -10 9 77 127 172 231
l71 77 112 -107 c61 -59 120 -113 130 -120 37 -25 98 24 84 68 -3 11 -59 69
-123 130 l-117 111 55 50 c58 52 265 204 290 213 11 4 42 -34 104 -124 49 -71
95 -131 102 -134 23 -9 63 12 76 39 10 23 4 36 -77 156 -68 103 -84 133 -74
141 73 48 431 189 446 174 2 -2 20 -57 40 -123 47 -159 55 -173 96 -173 67 0
70 25 26 190 -17 63 -32 122 -32 129 -3 21 138 49 278 57 l110 7 0 -106 c0
-91 3 -109 21 -133 27 -37 67 -50 104 -34 51 21 64 53 68 171 l4 107 42 -5
c22 -2 91 -11 151 -19z m1399 -261 c309 -320 406 -425 406 -437 0 -6 -38 -50
-86 -96 l-85 -85 -56 60 c-186 202 -188 203 -233 167 -45 -36 -32 -65 85 -182
59 -59 106 -112 104 -118 -2 -5 -39 -42 -82 -83 l-79 -72 -111 116 c-64 67
-120 117 -130 117 -52 0 -80 -53 -52 -97 9 -14 60 -69 112 -122 l95 -96 -87
-81 -87 -82 -106 114 c-91 96 -112 113 -138 114 -39 0 -57 -21 -56 -62 1 -26
19 -50 106 -137 l106 -106 -63 -63 -63 -63 -80 84 c-43 46 -91 98 -106 115
-34 41 -80 44 -104 6 -25 -38 -12 -60 100 -174 l100 -101 -63 -62 -63 -62
-116 123 c-65 68 -125 122 -135 122 -25 0 -67 -45 -67 -71 0 -14 37 -59 108
-131 59 -59 108 -112 110 -116 1 -4 -32 -41 -73 -82 l-76 -75 -62 66 c-34 36
-83 89 -109 117 -52 58 -84 66 -118 32 -39 -39 -27 -65 83 -177 56 -57 103
-107 105 -111 2 -7 -164 -167 -423 -407 -77 -71 -221 -208 -320 -304 l-180
-173 -115 121 c-73 77 -122 121 -135 121 -36 0 -65 -28 -65 -63 0 -27 16 -48
112 -144 l113 -113 -70 -70 c-38 -38 -75 -70 -81 -70 -6 0 -61 52 -123 115
-115 119 -137 131 -173 98 -40 -36 -25 -67 92 -191 l110 -117 -67 -67 -66 -67
-115 119 c-62 66 -122 122 -133 125 -34 11 -69 -20 -69 -61 0 -33 11 -47 115
-152 l115 -115 -82 -78 c-46 -43 -86 -79 -89 -79 -3 0 -57 52 -118 116 -94 96
-117 115 -138 112 -34 -4 -67 -48 -58 -78 4 -12 57 -72 117 -132 l110 -110
-78 -74 -79 -75 -117 121 c-119 123 -141 136 -180 107 -9 -7 -19 -24 -23 -38
-8 -30 16 -60 138 -178 48 -47 87 -89 87 -95 0 -6 -35 -42 -77 -81 l-76 -69
-288 294 -288 295 52 50 c122 117 320 300 327 303 4 2 41 -33 81 -78 68 -74
76 -81 108 -78 23 2 40 12 53 29 18 24 19 29 5 55 -9 16 -45 58 -81 94 -36 35
-66 68 -66 72 0 3 28 33 62 65 35 32 126 119 203 193 77 74 253 240 390 369
138 129 401 379 585 556 184 176 411 393 504 480 l169 160 71 -77 c89 -95 114
-112 149 -99 32 12 50 45 41 73 -3 11 -43 59 -87 105 l-81 84 115 115 115 114
90 -90 c101 -100 127 -110 163 -64 12 15 21 33 21 40 0 8 -38 55 -85 105 -47
50 -85 94 -85 98 0 4 55 60 122 125 l122 118 94 -96 c101 -102 125 -113 162
-76 34 34 24 57 -62 148 -46 48 -87 90 -93 94 -5 4 39 56 102 120 l112 114 94
-93 c52 -51 101 -93 109 -93 8 0 27 9 42 21 45 36 36 62 -61 161 l-88 89 62
60 c33 32 64 59 69 59 4 0 84 -80 178 -177z m-1774 -692 c0 -85 1 -91 26 -110
38 -30 80 -27 116 9 29 29 29 33 26 110 l-3 80 40 0 c45 0 212 -33 222 -44 8
-8 -124 -140 -392 -391 -99 -93 -279 -263 -400 -380 -121 -116 -321 -307 -445
-425 -124 -118 -252 -241 -285 -272 l-60 -57 -16 72 c-9 41 -19 99 -22 130
l-7 57 100 0 c94 0 103 2 125 25 31 30 32 66 2 101 -23 27 -28 28 -125 28 -56
0 -102 3 -102 6 0 35 36 207 56 272 93 296 324 567 623 732 46 25 85 46 86 46
2 0 15 -31 30 -70 46 -121 79 -143 146 -97 29 20 34 29 33 63 0 21 -13 64 -27
95 -15 31 -27 59 -27 62 0 11 167 42 243 46 l37 1 0 -89z m2235 -736 c13 -66
27 -152 30 -192 l7 -71 -84 1 c-88 2 -112 -6 -158 -55 -28 -30 -27 -95 3 -139
40 -61 120 -84 206 -59 l33 9 -6 -57 c-14 -112 -37 -229 -73 -357 -20 -71 -37
-131 -38 -133 -1 -1 -24 7 -51 17 -27 11 -86 31 -132 45 -109 33 -142 22 -142
-50 0 -31 25 -46 135 -82 137 -45 146 -50 133 -78 -6 -13 -15 -21 -19 -18 -5
3 -6 -2 -3 -10 7 -18 -24 -79 -36 -71 -6 3 -7 -1 -4 -9 8 -20 -44 -106 -64
-106 -15 0 -15 -2 -2 -10 8 -5 11 -12 7 -16 -4 -4 -15 0 -24 8 -10 8 -63 41
-119 72 -115 64 -154 71 -181 30 -15 -24 -15 -29 -2 -52 8 -15 29 -36 46 -47
18 -11 53 -33 78 -48 25 -16 42 -33 39 -39 -4 -6 -2 -8 3 -5 6 4 30 -2 53 -12
42 -19 42 -19 23 -38 -11 -11 -23 -27 -26 -37 -4 -9 -12 -14 -17 -11 -6 4 -10
3 -9 -2 4 -22 -6 -38 -72 -115 -39 -46 -77 -90 -85 -98 -12 -12 -20 -8 -63 35
-27 28 -63 62 -80 76 -20 18 -29 32 -25 43 3 9 1 16 -6 16 -6 0 -8 -5 -5 -10
3 -5 2 -10 -2 -10 -14 0 -32 21 -29 34 2 6 1 9 -1 6 -2 -3 -18 -4 -37 -2 -25
3 -39 -2 -55 -20 -22 -22 -23 -41 -6 -82 6 -14 5 -17 -3 -12 -8 5 -10 2 -5 -9
4 -12 8 -13 13 -5 5 8 20 0 49 -26 32 -28 39 -39 29 -47 -10 -6 -8 -7 4 -3 21
6 72 -50 63 -72 -4 -12 -3 -13 10 -2 13 11 14 10 9 -4 -4 -11 -1 -16 11 -16
10 0 13 5 9 12 -5 7 -3 8 6 3 10 -6 -7 -27 -61 -76 -41 -38 -87 -75 -104 -83
-16 -9 -26 -16 -22 -16 9 0 -30 -34 -73 -63 -14 -9 -36 -25 -49 -34 -24 -17
-24 -17 -19 5 4 14 2 20 -4 16 -6 -4 -14 0 -19 7 -14 22 -10 35 4 15 13 -17
14 -17 31 -1 16 17 17 16 10 -11 -7 -29 -7 -29 13 -9 20 20 20 20 -5 53 -21
27 -23 35 -12 42 8 5 11 12 8 15 -4 4 -13 3 -20 -1 -17 -11 -48 -13 -48 -3 0
4 6 9 13 12 28 10 -6 19 -37 10 -31 -10 -36 -8 -54 17 -12 16 -19 36 -16 48 3
11 1 23 -4 26 -6 4 -8 -3 -4 -16 l5 -23 -22 20 c-14 12 -33 19 -49 17 -26 -4
-27 -3 -7 12 19 16 19 16 -7 5 -15 -7 -25 -17 -21 -22 4 -6 0 -8 -8 -5 -35 14
-6 -103 38 -154 9 -10 13 -24 10 -33 -9 -21 -30 -19 -23 3 4 10 -1 27 -9 38
-15 18 -16 17 -9 -16 8 -45 17 -54 42 -41 19 10 32 6 32 -10 0 -5 -7 -6 -16
-2 -14 5 -14 2 2 -23 11 -15 13 -25 6 -20 -7 4 -19 1 -27 -8 -11 -11 -12 -16
-2 -19 8 -4 8 -6 0 -6 -6 -1 -23 13 -38 31 -25 29 -25 33 -9 38 26 9 6 17 -50
19 -28 1 -53 4 -58 7 -4 3 -8 0 -8 -5 0 -6 20 -11 45 -11 36 0 45 -4 45 -17 0
-13 -3 -14 -12 -5 -14 14 -38 16 -38 4 0 -5 11 -15 25 -22 14 -7 25 -18 25
-23 0 -5 -6 -4 -14 2 -8 7 -29 9 -54 5 -27 -4 -42 -2 -47 6 -6 10 -1 12 23 7
18 -4 32 -2 32 3 0 16 -50 23 -76 11 -20 -9 -24 -8 -24 5 0 8 -5 12 -10 9 -8
-5 -7 -12 2 -22 10 -13 8 -19 -17 -39 -22 -17 -32 -20 -42 -12 -7 6 -13 8 -13
5 0 -3 -3 -12 -6 -20 -4 -12 0 -14 15 -10 13 3 21 1 21 -7 0 -7 -7 -10 -16 -6
-13 5 -15 2 -11 -13 3 -12 -1 -22 -10 -25 -8 -3 -11 -2 -8 3 3 6 1 28 -4 51
-8 34 -7 40 5 36 8 -3 14 0 15 7 0 9 2 9 6 0 8 -21 33 -15 33 7 0 20 -24 28
-34 11 -7 -11 -76 -12 -76 -1 0 5 5 10 11 12 7 2 0 12 -15 21 -25 17 -26 17
-26 -3 0 -12 3 -19 8 -17 4 3 7 -6 7 -19 0 -32 -2 -31 -20 12 -19 47 -53 74
-90 72 -30 -1 -29 -1 5 -8 l35 -7 -42 -2 c-24 0 -43 -5 -43 -11 0 -5 8 -6 18
-3 15 6 15 5 3 -11 -8 -9 -15 -35 -15 -56 -2 -47 -1 -46 -50 -55 -31 -6 -38
-5 -34 6 2 8 21 15 41 17 36 3 49 16 25 24 -14 5 -64 -18 -73 -33 -16 -25 -63
3 -57 34 4 17 -16 5 -21 -13 -3 -10 -2 -19 2 -18 22 2 20 -6 -10 -34 -19 -18
-33 -35 -31 -38 1 -3 -6 -6 -18 -8 -25 -4 -26 6 -2 24 16 12 15 13 -5 11 -18
-1 -23 -7 -23 -29 0 -15 5 -28 10 -28 6 0 10 -7 10 -15 0 -8 5 -15 10 -15 6 0
10 -7 10 -15 0 -8 -5 -15 -11 -15 -5 0 -8 4 -4 9 3 5 -5 17 -17 25 -18 13 -22
25 -21 63 1 27 -1 40 -3 31 -3 -10 -10 -18 -15 -18 -5 0 -9 -5 -9 -11 0 -5 5
-7 11 -3 9 5 10 -3 5 -30 -4 -20 -3 -36 1 -35 33 6 47 -16 16 -24 -15 -4 -14
-6 5 -12 17 -6 21 -12 16 -28 -5 -15 -3 -19 8 -15 7 3 31 2 53 -3 l40 -8 -43
3 c-23 2 -40 0 -36 -5 3 -5 -2 -9 -10 -9 -9 0 -16 5 -16 10 0 6 -12 10 -27 10
-16 0 -23 -4 -17 -8 7 -4 8 -15 4 -27 -7 -19 -8 -18 -14 5 -3 14 -7 71 -8 127
-3 98 -4 104 -31 128 -24 23 -35 26 -93 24 -53 -2 -67 -6 -75 -21 -6 -11 -8
-23 -4 -26 3 -3 8 3 11 14 3 11 14 21 25 21 18 2 18 0 -6 -28 -14 -17 -25 -40
-25 -52 0 -16 -3 -18 -9 -8 -6 10 -10 10 -16 1 -4 -6 -2 -17 4 -23 6 -6 11
-37 11 -70 0 -55 -1 -58 -21 -52 -14 5 -19 3 -15 -3 3 -6 0 -13 -6 -15 -8 -4
-7 -6 4 -6 34 -2 25 -16 -10 -18 -21 -1 -30 1 -22 5 24 11 18 52 -10 67 l-25
14 28 1 c15 0 27 5 27 10 0 6 -12 11 -27 11 -22 1 -23 2 -8 6 22 6 36 23 29
35 -9 14 -26 8 -20 -7 3 -10 -1 -15 -12 -15 -9 0 -28 -3 -41 -7 -17 -4 -22 -3
-17 5 4 7 16 12 27 12 14 0 19 7 19 25 0 14 -4 25 -10 25 -5 0 -7 -7 -4 -15 4
-8 1 -15 -5 -15 -18 0 -12 38 7 43 9 2 1 2 -18 0 -42 -6 -49 -11 -30 -23 8 -5
11 -12 7 -16 -10 -10 -57 40 -57 61 0 8 -4 15 -10 15 -5 0 -10 8 -10 18 0 14
-2 15 -10 2 -8 -13 -11 -13 -19 -1 -5 7 -14 10 -20 7 -7 -5 -11 9 -11 42 0 49
-1 50 -35 56 -36 7 -75 -6 -75 -26 0 -6 -3 -8 -6 -5 -4 4 -1 13 6 22 9 11 9
15 1 15 -7 0 -10 4 -7 9 3 5 25 7 49 5 44 -4 42 0 -5 10 -25 6 -27 8 -16 26 7
11 23 20 35 20 17 0 23 6 23 21 0 16 5 20 20 16 17 -4 19 -1 14 19 -5 20 -3
23 10 18 10 -4 15 -13 12 -20 -4 -10 3 -14 22 -14 21 0 24 2 12 10 -13 8 -13
11 -1 19 11 7 9 10 -8 16 -12 3 -19 11 -16 16 8 12 45 12 45 -1 0 -5 5 -10 12
-10 6 0 4 7 -5 18 -18 20 -23 37 -8 28 5 -3 14 7 20 22 14 34 78 58 159 61
l52 2 0 -81 c0 -45 5 -91 11 -102 8 -15 8 -22 -2 -28 -12 -8 -6 -9 66 -11 47
-2 101 4 87 9 -10 3 -9 9 5 24 15 16 18 36 17 103 l-1 83 61 6 c298 33 627
176 820 357 l63 58 44 -45 c53 -54 79 -62 124 -38 64 34 56 86 -21 144 -30 22
-54 43 -54 46 0 4 17 27 38 53 86 104 181 283 228 429 23 72 56 238 69 342 l6
45 69 0 c89 0 124 22 128 82 3 34 -1 44 -24 62 -22 17 -41 21 -100 21 -41 0
-74 4 -74 9 0 5 6 9 13 8 32 -1 48 4 42 13 -3 6 1 10 10 10 9 0 14 4 11 8 -2
4 -1 14 4 22 7 12 11 12 27 -1 17 -13 17 -13 4 4 -12 16 -12 20 3 35 16 16 17
16 10 -2 -6 -15 -3 -14 17 5 13 13 21 27 16 30 -4 3 5 12 20 20 16 8 37 22 47
32 11 9 23 17 28 17 4 0 8 7 8 15 0 8 4 15 8 15 4 0 38 29 74 64 36 36 86 74
111 86 27 13 44 27 41 34 -3 7 5 21 17 32 22 19 22 19 15 -6 -6 -25 -6 -25 5
-2 7 12 18 22 25 22 7 0 19 6 26 14 8 8 23 16 34 18 26 5 39 -29 69 -177z
m-927 -211 c-3 -14 -5 -12 -10 9 -3 19 -2 25 4 19 6 -6 8 -18 6 -28z m21 -96
c1 -15 -8 -18 -63 -18 -68 0 -101 14 -38 16 84 2 90 5 86 44 -3 34 -3 34 5 5
5 -16 9 -38 10 -47z m-3328 -18 c9 -14 6 -126 -4 -136 -2 -3 -16 0 -31 6 -15
5 -78 10 -141 10 -112 0 -114 0 -135 27 -21 28 -21 63 2 90 10 13 113 21 231
19 47 -1 71 -6 78 -16z m4464 -13 c20 -29 19 -49 -6 -81 -20 -25 -23 -26 -137
-27 -64 0 -112 -2 -107 -4 6 -2 22 -6 37 -9 30 -7 30 -37 0 -31 -9 2 -27 4
-39 4 -13 1 -23 7 -23 15 0 7 -9 20 -20 27 -15 10 -21 29 -24 71 l-5 57 132 3
c159 4 173 2 192 -25z m-1370 -67 c0 -28 7 -47 23 -62 21 -21 32 -23 122 -22
l100 0 0 -30 c0 -63 -41 -237 -84 -354 -47 -128 -158 -306 -270 -429 -73 -81
-343 -273 -383 -273 -5 0 -17 26 -27 58 -25 79 -59 122 -97 122 -16 0 -43 -7
-59 -15 -25 -13 -30 -22 -30 -53 0 -20 13 -65 30 -99 27 -58 28 -64 12 -72
-18 -10 -135 -35 -214 -45 l-46 -7 -4 96 c-3 87 -5 99 -27 116 -43 35 -125 17
-139 -30 -4 -14 -6 -61 -5 -105 l1 -79 -56 6 c-31 3 -82 11 -112 18 -44 9 -51
13 -35 20 18 7 18 8 2 8 -15 1 -14 5 8 26 14 14 25 30 25 36 0 6 3 8 8 6 4 -3
20 12 36 34 17 21 36 39 44 39 9 0 13 7 9 19 -3 14 -1 18 9 14 8 -3 28 7 45
21 17 14 28 26 25 26 -3 0 8 13 24 28 16 16 27 32 23 36 -4 4 -1 11 7 17 13 8
13 10 0 19 -8 5 -10 10 -4 10 5 0 16 -6 23 -12 11 -11 13 -10 8 5 -4 11 -1 17
7 17 14 0 31 27 27 43 -1 5 3 6 8 3 15 -10 43 5 37 20 -4 10 3 14 19 14 14 0
25 3 25 8 0 4 13 21 30 39 20 21 26 33 17 37 -6 3 -3 4 8 1 14 -3 31 7 54 30
19 19 39 35 45 35 6 0 4 5 -4 10 -12 8 -12 10 -1 10 8 0 20 8 27 18 7 9 17 17
22 17 6 0 37 27 69 60 33 33 80 79 106 103 26 24 47 47 47 52 0 5 6 7 14 4 8
-3 21 5 30 18 18 25 21 42 7 34 -11 -7 -8 20 3 31 4 4 6 2 4 -6 -7 -28 21 -21
61 17 29 27 38 42 31 50 -7 8 -7 9 1 3 17 -14 39 -2 39 20 0 12 7 19 20 19 25
0 25 8 3 27 -16 13 -16 13 4 3 26 -12 63 7 96 47 10 13 26 23 36 23 25 0 55
29 71 69 12 29 15 31 21 15 7 -17 8 -17 8 3 1 19 10 53 15 53 1 0 1 -18 1 -40z
m-105 7 c0 -2 -17 -19 -37 -38 l-38 -34 34 38 c33 34 41 42 41 34z m60 -21 c0
-3 -4 -8 -10 -11 -5 -3 -10 -1 -10 4 0 6 5 11 10 11 6 0 10 -2 10 -4z m-640
-530 c0 -2 -8 -10 -17 -17 -16 -13 -17 -12 -4 4 13 16 21 21 21 13z m-340
-320 c0 -2 -7 -9 -15 -16 -13 -11 -14 -10 -9 4 5 14 24 23 24 12z m35 -6 c-3
-5 -11 -10 -16 -10 -6 0 -7 5 -4 10 3 6 11 10 16 10 6 0 7 -4 4 -10z m-275
-214 c0 -2 -8 -10 -17 -17 -16 -13 -17 -12 -4 4 13 16 21 21 21 13z m26 -53
c-7 -7 -26 7 -26 19 0 6 6 6 15 -2 9 -7 13 -15 11 -17z m1329 -542 c-4 -15 -1
-18 19 -14 30 6 41 -10 19 -28 -15 -12 -16 -12 -10 4 4 11 2 17 -8 17 -10 0
-12 -6 -8 -17 6 -16 5 -16 -8 -3 -18 18 -33 54 -19 45 6 -3 10 -1 10 4 0 6 3
11 6 11 3 0 3 -8 -1 -19z m70 -50 c-3 -6 -11 -11 -17 -11 -6 0 -6 6 2 15 14
17 26 13 15 -4z m-1703 -113 c-7 -7 -12 -8 -12 -2 0 14 12 26 19 19 2 -3 -1
-11 -7 -17z m1578 -32 c0 -6 -7 -1 -15 10 -14 19 -14 18 -15 -3 0 -19 -6 -23
-29 -23 -17 0 -33 5 -37 11 -4 8 1 9 15 4 18 -5 22 -3 19 11 -2 9 3 19 11 22
9 3 11 0 6 -8 -6 -9 -4 -11 4 -6 7 5 10 15 7 25 -4 9 3 5 14 -9 11 -14 20 -29
20 -34z m-1595 15 c3 -10 1 -29 -5 -42 -9 -21 -9 -20 -4 9 3 20 2 32 -5 32 -6
0 -11 5 -11 10 0 17 18 11 25 -9z m1325 -2 c20 -7 16 -8 -17 -5 -24 2 -43 0
-43 -5 0 -5 7 -9 15 -9 8 0 15 -4 15 -10 0 -5 -7 -10 -15 -10 -8 0 -15 4 -15
10 0 5 -8 7 -17 3 -16 -6 -16 -4 1 15 20 23 36 25 76 11z m98 -10 c5 -13 22
-11 20 2 -2 6 2 13 7 15 6 2 11 -5 12 -16 1 -13 -4 -20 -15 -20 -9 0 -27 -3
-39 -6 -17 -5 -23 -2 -23 10 0 9 -8 16 -17 16 -15 0 -16 2 -3 10 16 10 53 3
58 -11z m-1442 -15 c-3 -9 -6 -18 -6 -20 0 -2 -8 -4 -17 -3 -11 0 -13 3 -5 6
6 2 12 11 12 19 0 8 5 14 11 14 6 0 8 -7 5 -16z m1143 -34 c0 -9 -6 -4 -14 10
-19 33 -19 49 0 24 8 -10 14 -26 14 -34z m30 13 c0 -31 -2 -34 -9 -18 -12 28
-12 55 0 55 6 0 10 -17 9 -37z m-1020 -27 c-9 -8 -10 -7 -5 7 3 10 7 24 7 30
1 7 3 4 6 -7 3 -10 -1 -23 -8 -30z m828 22 c-3 -8 -6 -5 -6 6 -1 11 2 17 5 13
3 -3 4 -12 1 -19z m516 5 c-7 -2 -19 -2 -25 0 -7 3 -2 5 12 5 14 0 19 -2 13
-5z m62 -3 c-3 -5 -11 -10 -16 -10 -6 0 -7 5 -4 10 3 6 11 10 16 10 6 0 7 -4
4 -10z m-675 -12 c0 -4 -12 -8 -26 -8 -21 0 -24 -3 -15 -14 13 -15 1 -29 -37
-41 -15 -4 -21 -12 -18 -21 3 -8 0 -14 -7 -14 -7 0 -13 9 -13 20 0 11 6 20 14
20 7 0 12 8 10 18 -2 11 3 16 14 14 12 -2 15 3 11 17 -4 16 0 19 31 18 20 -1
36 -5 36 -9z m80 2 c0 -5 -7 -10 -16 -10 -8 0 -12 5 -9 10 3 6 10 10 16 10 5
0 9 -4 9 -10z m430 2 c0 -4 -12 -15 -27 -25 l-28 -18 30 5 c24 5 27 4 12 -4
-9 -6 -27 -8 -39 -4 -21 6 -21 7 -2 17 10 6 25 17 32 24 15 15 22 16 22 5z
m-1140 -58 c0 -8 -9 -14 -20 -14 -17 0 -20 7 -20 38 l1 37 19 -24 c11 -13 20
-29 20 -37z m1229 32 c-25 -12 -54 -26 -65 -29 -18 -7 -18 -6 -1 7 18 14 18
14 0 18 -10 3 0 5 22 5 21 1 41 6 43 12 2 6 13 11 25 10 16 0 9 -6 -24 -23z
m-1479 8 c0 -28 -25 -94 -36 -94 -8 0 -14 5 -14 10 0 6 -7 10 -15 10 -8 0 -15
4 -15 9 0 5 7 11 15 15 8 3 15 15 15 26 0 12 -3 19 -7 17 -5 -3 -17 -1 -28 4
-14 5 -4 8 33 8 28 1 52 -2 52 -5z m934 -11 c-5 -5 -12 -12 -16 -18 -4 -6 -8
-2 -8 8 0 9 7 17 17 17 9 0 12 -3 7 -7z m60 -9 c9 -24 4 -24 -18 -3 -16 16
-17 19 -4 19 9 0 19 -7 22 -16z m157 -10 c5 -15 8 -29 5 -31 -2 -2 -8 10 -14
26 -13 38 -5 41 9 5z m156 20 c-3 -3 -12 -4 -19 -1 -8 3 -5 6 6 6 11 1 17 -2
13 -5z m-1147 -15 c0 -5 -4 -7 -10 -4 -5 3 -10 2 -10 -4 0 -5 9 -13 20 -16 11
-3 20 -11 20 -16 0 -6 -9 -7 -21 -4 -18 6 -20 4 -14 -17 4 -16 4 -19 -3 -9 -8
12 -11 11 -15 -5 -2 -10 -2 1 1 26 2 25 6 48 9 53 6 11 23 9 23 -4z m829 -69
c0 -10 -2 -11 -6 -2 -2 6 -9 10 -14 7 -5 -4 -6 2 -2 11 3 10 2 15 -3 12 -5 -4
-10 5 -11 19 l-1 26 19 -29 c10 -16 19 -36 18 -44z m-105 44 c9 -24 7 -28 -9
-14 -17 14 -20 30 -6 30 5 0 12 -7 15 -16z m496 -4 c-8 -5 -19 -10 -25 -10 -5
0 -3 5 5 10 8 5 20 10 25 10 6 0 3 -5 -5 -10z m-186 -26 c3 -8 2 -12 -4 -9 -6
3 -10 10 -10 16 0 14 7 11 14 -7z m111 -2 c-3 -3 -11 0 -18 7 -9 10 -8 11 6 5
10 -3 15 -9 12 -12z m-1022 -1 c4 -1 7 -6 7 -11 0 -6 -11 -8 -27 -4 -39 9 -52
24 -17 19 16 -2 32 -4 37 -4z m550 2 c-7 -2 -19 -2 -25 0 -7 3 -2 5 12 5 14 0
19 -2 13 -5z m402 -3 c-3 -5 2 -10 12 -11 16 0 16 -1 -2 -8 -37 -15 -85 -21
-85 -11 0 6 17 10 38 11 20 0 31 3 24 6 -13 5 -7 23 9 23 6 0 7 -4 4 -10z
m-1282 -20 c9 0 17 -4 17 -10 0 -14 -19 -12 -55 6 -26 12 -27 14 -5 9 14 -2
33 -5 43 -5z m264 -12 c-3 -8 -6 -5 -6 6 -1 11 2 17 5 13 3 -3 4 -12 1 -19z
m573 -13 c-7 -9 -15 -13 -17 -11 -6 6 20 36 26 30 2 -2 -2 -10 -9 -19z m-171
-10 c12 -13 13 -257 1 -281 -15 -28 -49 -35 -89 -18 l-31 13 0 144 c0 79 2
146 5 148 7 7 106 1 114 -6z m364 -5 c-4 -16 -8 -18 -19 -9 -16 13 -19 23 -5
14 5 -3 12 -1 16 5 10 16 14 12 8 -10z m57 -8 c0 -4 -12 -8 -27 -9 -16 0 -20
1 -10 4 9 2 17 9 17 14 0 6 5 7 10 4 6 -3 10 -9 10 -13z m-1760 -1 c0 -5 -7
-12 -16 -15 -14 -5 -15 -4 -4 9 14 17 20 19 20 6z m860 -2 c0 -5 -9 -9 -20 -9
-11 0 -20 4 -20 8 0 4 9 8 20 9 11 1 20 -2 20 -8z m47 -15 c-3 -3 -12 -4 -19
-1 -8 3 -5 6 6 6 11 1 17 -2 13 -5z m130 0 c-3 -3 -12 -4 -19 -1 -8 3 -5 6 6
6 11 1 17 -2 13 -5z m573 -4 c8 -5 11 -10 5 -10 -5 0 -17 5 -25 10 -8 5 -10
10 -5 10 6 0 17 -5 25 -10z m-657 -7 c-7 -2 -19 -2 -25 0 -7 3 -2 5 12 5 14 0
19 -2 13 -5z m120 -10 c-7 -2 -21 -2 -30 0 -10 3 -4 5 12 5 17 0 24 -2 18 -5z
m514 1 c-3 -3 -12 -4 -19 -1 -8 3 -5 6 6 6 11 1 17 -2 13 -5z m-84 -11 c-13
-2 -33 -2 -45 0 -13 2 -3 4 22 4 25 0 35 -2 23 -4z"/>
<path d="M949 2786 c-2 -3 -42 -7 -89 -11 -47 -4 -87 -8 -88 -10 -9 -9 72 -17
112 -11 35 6 97 35 75 36 -3 0 -8 -2 -10 -4z"/>
<path d="M2842 3219 c-87 -26 -162 -93 -213 -189 -21 -39 -24 -59 -24 -145 0
-90 3 -105 28 -153 122 -231 431 -256 588 -49 129 172 65 424 -131 516 -61 28
-187 39 -248 20z m165 -188 c26 -12 52 -35 69 -60 23 -35 26 -48 22 -96 -5
-62 -37 -106 -95 -131 -97 -42 -205 25 -220 135 -11 80 72 167 162 170 11 0
39 -8 62 -18z"/>
<path d="M1831 3331 c-28 -28 -46 -98 -30 -117 20 -25 62 -42 109 -46 40 -3
46 0 67 31 48 70 14 122 -94 145 -25 6 -36 3 -52 -13z"/>
<path d="M4692 1635 c4 -4 3 -14 -4 -22 -6 -7 -9 -15 -7 -18 3 -2 10 4 17 15
9 15 9 21 -1 26 -6 4 -9 4 -5 -1z"/>
<path d="M4420 1556 c7 -7 13 -7 20 0 6 6 3 10 -10 10 -13 0 -16 -4 -10 -10z"/>
<path d="M4533 1485 c0 -8 4 -12 9 -9 5 3 6 10 3 15 -9 13 -12 11 -12 -6z"/>
<path d="M4585 1490 c-4 -6 -11 -7 -17 -4 -7 5 -8 2 -3 -6 4 -7 2 -16 -6 -21
-8 -5 -9 -9 -3 -9 7 0 19 11 28 25 9 14 14 25 12 25 -3 0 -8 -5 -11 -10z"/>
<path d="M4368 1373 c7 -3 16 -2 19 1 4 3 -2 6 -13 5 -11 0 -14 -3 -6 -6z"/>
<path d="M2720 1359 c0 -5 5 -7 10 -4 6 3 10 8 10 11 0 2 -4 4 -10 4 -5 0 -10
-5 -10 -11z"/>
<path d="M2768 1363 c6 -2 18 -2 25 0 6 3 1 5 -13 5 -14 0 -19 -2 -12 -5z"/>
<path d="M4320 1340 c0 -11 2 -20 4 -20 2 0 6 9 9 20 3 11 1 20 -4 20 -5 0 -9
-9 -9 -20z"/>
<path d="M4357 1336 c-3 -8 0 -17 7 -19 10 -4 12 1 9 14 -6 23 -9 24 -16 5z"/>
<path d="M4241 1304 c0 -11 3 -14 6 -6 3 7 2 16 -1 19 -3 4 -6 -2 -5 -13z"/>
<path d="M4380 1290 c-9 -6 -10 -10 -3 -10 6 0 15 5 18 10 8 12 4 12 -15 0z"/>
<path d="M4272 1263 c9 -11 9 -16 -3 -24 -8 -5 -9 -9 -4 -9 12 0 26 10 42 30
9 13 6 15 -18 16 -24 1 -27 -1 -17 -13z"/>
<path d="M2653 1243 c9 -2 25 -2 35 0 9 3 1 5 -18 5 -19 0 -27 -2 -17 -5z"/>
<path d="M4017 1233 c3 -7 6 -13 8 -13 2 0 5 6 8 13 3 8 -1 14 -8 14 -7 0 -11
-6 -8 -14z"/>
<path d="M3844 1204 c3 -9 6 -21 6 -27 0 -8 3 -8 10 -1 12 12 3 44 -12 44 -6
0 -7 -7 -4 -16z"/>
<path d="M4276 1205 c-3 -8 -2 -15 3 -15 5 0 14 7 21 15 10 12 10 15 -3 15 -8
0 -17 -7 -21 -15z"/>
<path d="M4220 1200 c0 -5 5 -10 10 -10 6 0 10 5 10 10 0 6 -4 10 -10 10 -5 0
-10 -4 -10 -10z"/>
<path d="M3630 1186 c0 -2 13 -6 29 -8 17 -2 28 -1 25 4 -5 8 -54 12 -54 4z"/>
<path d="M2630 1170 c0 -5 5 -10 11 -10 5 0 7 5 4 10 -3 6 -8 10 -11 10 -2 0
-4 -4 -4 -10z"/>
<path d="M4157 1165 c4 -5 13 -17 22 -26 14 -14 19 -14 39 -1 22 14 22 15 3
28 -22 16 -73 15 -64 -1z m49 -22 c-2 -2 -11 0 -20 3 -14 5 -15 9 -5 15 12 7
34 -10 25 -18z"/>
<path d="M3628 1163 c7 -3 16 -2 19 1 4 3 -2 6 -13 5 -11 0 -14 -3 -6 -6z"/>
<path d="M2487 1153 c-15 -15 -5 -23 27 -23 40 0 66 8 66 21 0 10 -83 12 -93
2z m61 -10 c-10 -2 -26 -2 -35 0 -10 3 -2 5 17 5 19 0 27 -2 18 -5z"/>
<path d="M3683 1153 c9 -2 23 -2 30 0 6 3 -1 5 -18 5 -16 0 -22 -2 -12 -5z"/>
<path d="M3840 1155 c0 -5 5 -17 10 -25 5 -8 10 -10 10 -5 0 6 -5 17 -10 25
-5 8 -10 11 -10 5z"/>
<path d="M3674 1118 c-9 -14 23 -38 50 -38 17 0 18 2 6 10 -8 5 -23 10 -32 10
-10 0 -18 4 -18 10 0 5 13 7 30 4 19 -4 30 -2 30 5 0 15 -57 14 -66 -1z"/>
<path d="M2720 1099 c0 -5 5 -7 10 -4 6 3 10 8 10 11 0 2 -4 4 -10 4 -5 0 -10
-5 -10 -11z"/>
<path d="M3138 1093 c7 -3 16 -2 19 1 4 3 -2 6 -13 5 -11 0 -14 -3 -6 -6z"/>
<path d="M3295 1090 c3 -5 8 -10 11 -10 2 0 4 5 4 10 0 6 -5 10 -11 10 -5 0
-7 -4 -4 -10z"/>
<path d="M3620 1090 c0 -5 7 -7 15 -4 8 4 15 8 15 10 0 2 -7 4 -15 4 -8 0 -15
-4 -15 -10z"/>
<path d="M3528 1083 c7 -3 16 -2 19 1 4 3 -2 6 -13 5 -11 0 -14 -3 -6 -6z"/>
<path d="M2893 1053 c9 -2 23 -2 30 0 6 3 -1 5 -18 5 -16 0 -22 -2 -12 -5z"/>
<path d="M3185 1040 c-3 -5 -1 -10 4 -10 6 0 11 5 11 10 0 6 -2 10 -4 10 -3 0
-8 -4 -11 -10z"/>
<path d="M3230 1040 c0 -5 5 -10 10 -10 6 0 10 5 10 10 0 6 -4 10 -10 10 -5 0
-10 -4 -10 -10z"/>
<path d="M2586 1031 c-4 -7 -5 -15 -2 -18 9 -9 19 4 14 18 -4 11 -6 11 -12 0z"/>
<path d="M3158 1013 c7 -3 16 -2 19 1 4 3 -2 6 -13 5 -11 0 -14 -3 -6 -6z"/>
<path d="M3248 1003 c7 -3 16 -2 19 1 4 3 -2 6 -13 5 -11 0 -14 -3 -6 -6z"/>
<path d="M2780 969 c-22 -8 -22 -8 7 -4 24 3 33 0 36 -13 3 -12 5 -11 6 6 1
23 -8 26 -49 11z"/>
<path d="M3140 960 c0 -5 7 -10 15 -10 8 0 15 5 15 10 0 6 -7 10 -15 10 -8 0
-15 -4 -15 -10z"/>
<path d="M2840 949 c0 -5 5 -7 10 -4 6 3 10 8 10 11 0 2 -4 4 -10 4 -5 0 -10
-5 -10 -11z"/>
<path d="M2806 925 c8 -37 14 -45 14 -19 0 10 -5 26 -10 34 -8 11 -9 7 -4 -15z"/>
<path d="M2775 919 c-9 -14 -2 -20 14 -10 8 6 9 11 3 15 -6 3 -14 1 -17 -5z"/>
<path d="M2816 821 c-4 -7 -5 -15 -2 -18 9 -9 19 4 14 18 -4 11 -6 11 -12 0z"/>
<path d="M2375 922 c-6 -4 -11 -23 -12 -42 l-3 -35 15 39 c16 41 16 49 0 38z"/>
<path d="M1373 5216 c-56 -26 -80 -105 -47 -156 27 -40 45 -50 90 -50 36 0 47
5 74 37 29 32 32 41 27 81 -9 78 -75 118 -144 88z"/>
<path d="M842 5143 c-27 -65 -49 -131 -57 -176 -6 -33 -11 -38 -49 -47 -75
-18 -151 -42 -178 -56 -31 -16 -45 -49 -28 -69 15 -18 109 -54 184 -69 l59
-12 27 -95 c48 -165 66 -192 104 -153 14 13 48 113 73 213 8 32 12 35 67 48
134 30 199 63 194 97 -4 28 -95 73 -178 88 -36 6 -66 12 -67 13 -2 1 -14 41
-28 91 -54 185 -84 217 -123 127z"/>
<path d="M5144 5054 c-85 -42 -83 -165 3 -201 44 -18 79 -10 115 24 55 53 41
145 -27 177 -41 20 -52 20 -91 0z"/>
<path d="M5230 1623 c-53 -20 -82 -89 -60 -144 17 -41 47 -59 96 -59 36 0 47
5 74 37 28 32 32 41 27 77 -9 69 -75 112 -137 89z"/>
<path d="M4999 1213 c-12 -27 -30 -85 -42 -130 l-22 -82 -45 -7 c-25 -4 -76
-17 -115 -30 -142 -48 -120 -107 57 -153 46 -12 88 -24 94 -26 6 -2 19 -36 29
-77 39 -160 74 -218 109 -182 15 15 72 185 78 233 2 19 11 27 38 33 94 22 184
54 206 75 47 43 3 76 -153 116 l-87 22 -8 40 c-12 59 -48 167 -64 193 -24 37
-52 28 -75 -25z"/>
<path d="M690 843 c-22 -20 -33 -40 -36 -68 -6 -50 11 -83 54 -108 29 -17 39
-18 72 -8 48 14 80 53 80 97 0 99 -100 150 -170 87z"/>
</g>
</svg>
